<svg xmlns="http://www.w3.org/2000/svg" width="25.981" height="25.981" viewBox="0 0 25.981 25.981"><defs><style>.a{fill:#414141;}</style></defs><path class="a" d="M22.937,2.03H21.719V0h-2.03V2.03H6.292V0H4.263V2.03H3.045A3.048,3.048,0,0,0,0,5.075V22.937a3.048,3.048,0,0,0,3.045,3.045H22.937a3.048,3.048,0,0,0,3.045-3.045V5.075A3.048,3.048,0,0,0,22.937,2.03Zm1.015,20.907a1.016,1.016,0,0,1-1.015,1.015H3.045A1.016,1.016,0,0,1,2.03,22.937V9.54H23.952Zm0-15.426H2.03V5.075A1.016,1.016,0,0,1,3.045,4.06H4.263v2.03h2.03V4.06h13.4v2.03h2.03V4.06h1.218a1.016,1.016,0,0,1,1.015,1.015Z"/><g transform="translate(3.857 11.671)"><rect class="a" width="2.03" height="2.03"/></g><g transform="translate(7.916 11.671)"><rect class="a" width="2.03" height="2.03"/></g><g transform="translate(11.976 11.671)"><rect class="a" width="2.03" height="2.03"/></g><g transform="translate(16.035 11.671)"><rect class="a" width="2.03" height="2.03"/></g><g transform="translate(20.095 11.671)"><rect class="a" width="2.03" height="2.03"/></g><g transform="translate(3.857 15.731)"><rect class="a" width="2.03" height="2.03"/></g><g transform="translate(7.916 15.731)"><rect class="a" width="2.03" height="2.03"/></g><g transform="translate(11.976 15.731)"><rect class="a" width="2.03" height="2.03"/></g><g transform="translate(16.035 15.731)"><rect class="a" width="2.03" height="2.03"/></g><g transform="translate(3.857 19.791)"><rect class="a" width="2.03" height="2.03"/></g><g transform="translate(7.916 19.791)"><rect class="a" width="2.03" height="2.03"/></g><g transform="translate(11.976 19.791)"><rect class="a" width="2.03" height="2.03"/></g><g transform="translate(16.035 19.791)"><rect class="a" width="2.03" height="2.03"/></g><g transform="translate(20.095 15.731)"><rect class="a" width="2.03" height="2.03"/></g></svg>