<svg xmlns="http://www.w3.org/2000/svg" width="27.648" height="27.648" viewBox="0 0 27.648 27.648"><defs><style>.a{fill:#414141;}</style></defs><path class="a" d="M13.824,0A13.824,13.824,0,1,0,27.648,13.824,13.825,13.825,0,0,0,13.824,0Zm0,3.456a10.359,10.359,0,0,1,9.734,6.912H4.09A10.359,10.359,0,0,1,13.824,3.456Zm0,12.1a1.728,1.728,0,1,1,1.728-1.728A1.728,1.728,0,0,1,13.824,15.552ZM3.456,13.824c4.722,0,8.546,4.55,8.626,10.193A10.366,10.366,0,0,1,3.456,13.824Zm12.11,10.193c.08-5.643,3.9-10.193,8.626-10.193A10.366,10.366,0,0,1,15.566,24.017Z"/></svg>